<svg xmlns="http://www.w3.org/2000/svg" xmlns:xlink="http://www.w3.org/1999/xlink" width="1366" zoomAndPan="magnify" viewBox="0 0 1024.5 576" height="768" preserveAspectRatio="xMidYMid meet" version="1.2"><defs><clipPath id="ab1b25e9d3"><path d="M 0 0.140625 L 1024 0.140625 L 1024 575.859375 L 0 575.859375 Z M 0 0.140625 "/></clipPath><clipPath id="ea18bf2096"><path d="M 374.71875 108.351562 L 555 108.351562 L 555 234 L 374.71875 234 Z M 374.71875 108.351562 "/></clipPath><clipPath id="c33f3c529f"><path d="M 374.71875 202 L 500 202 L 500 382.71875 L 374.71875 382.71875 Z M 374.71875 202 "/></clipPath><clipPath id="6e541f63b9"><path d="M 468 257 L 649.085938 257 L 649.085938 382.71875 L 468 382.71875 Z M 468 257 "/></clipPath><clipPath id="b9af502662"><path d="M 524 108.351562 L 649.085938 108.351562 L 649.085938 289 L 524 289 Z M 524 108.351562 "/></clipPath></defs><g id="615d1a7b01"><g clip-rule="nonzero" clip-path="url(#ab1b25e9d3)"><path style=" stroke:none;fill-rule:nonzero;fill:#ffffff;fill-opacity:1;" d="M 0 0.140625 L 1024 0.140625 L 1024 575.859375 L 0 575.859375 Z M 0 0.140625 "/><path style=" stroke:none;fill-rule:nonzero;fill:#000000;fill-opacity:1;" d="M 0 0.140625 L 1024 0.140625 L 1024 575.859375 L 0 575.859375 Z M 0 0.140625 "/></g><g clip-rule="nonzero" clip-path="url(#ea18bf2096)"><path style=" stroke:none;fill-rule:nonzero;fill:#f1471d;fill-opacity:1;" d="M 524.132812 140.128906 C 514.144531 140.128906 505.28125 144.898438 499.671875 152.28125 L 499.671875 108.355469 L 374.722656 108.355469 L 374.722656 233.308594 L 407.039062 233.308594 C 407.039062 213.03125 423.535156 196.535156 443.808594 196.535156 C 464.085938 196.535156 480.578125 213.03125 480.578125 233.308594 L 499.671875 233.308594 L 499.671875 189.382812 C 505.28125 196.765625 514.144531 201.535156 524.132812 201.535156 C 541.085938 201.535156 554.832031 187.789062 554.832031 170.832031 C 554.832031 153.875 541.085938 140.128906 524.132812 140.128906 "/></g><g clip-rule="nonzero" clip-path="url(#c33f3c529f)"><path style=" stroke:none;fill-rule:nonzero;fill:#f18314;fill-opacity:1;" d="M 462.902344 320.238281 C 462.902344 299.964844 479.398438 283.46875 499.671875 283.46875 L 499.671875 257.765625 L 462.363281 257.765625 C 469.84375 252.078125 474.640625 243.042969 474.507812 232.886719 C 474.289062 216.476562 460.957031 203 444.546875 202.613281 C 427.253906 202.210938 413.105469 216.105469 413.105469 233.308594 C 413.105469 243.292969 417.875 252.15625 425.257812 257.765625 L 374.722656 257.765625 C 374.722656 326.773438 430.664062 382.714844 499.671875 382.714844 L 499.671875 357.007812 C 479.398438 357.007812 462.902344 340.515625 462.902344 320.238281 "/></g><g clip-rule="nonzero" clip-path="url(#6e541f63b9)"><path style=" stroke:none;fill-rule:nonzero;fill:#f0402a;fill-opacity:1;" d="M 586.605469 294.535156 C 566.328125 294.535156 549.835938 278.042969 549.835938 257.765625 L 524.132812 257.765625 L 524.132812 301.6875 C 518.523438 294.308594 509.65625 289.539062 499.671875 289.539062 C 482.71875 289.539062 468.972656 303.28125 468.972656 320.238281 C 468.972656 337.195312 482.71875 350.941406 499.671875 350.941406 C 509.65625 350.941406 518.523438 346.171875 524.132812 338.792969 L 524.132812 382.714844 L 649.082031 382.714844 L 649.082031 257.765625 L 623.375 257.765625 C 623.375 278.042969 606.882812 294.535156 586.605469 294.535156 "/></g><g clip-rule="nonzero" clip-path="url(#b9af502662)"><path style=" stroke:none;fill-rule:nonzero;fill:#f18314;fill-opacity:1;" d="M 524.132812 108.355469 L 524.132812 134.0625 C 544.40625 134.0625 560.902344 150.554688 560.902344 170.832031 C 560.902344 191.109375 544.40625 207.601562 524.132812 207.601562 L 524.132812 233.308594 L 568.054688 233.308594 C 560.566406 238.992188 555.773438 248.027344 555.910156 258.183594 C 556.125 274.59375 569.453125 288.070312 585.867188 288.457031 C 603.160156 288.863281 617.308594 274.964844 617.308594 257.765625 C 617.308594 247.78125 612.539062 238.914062 605.15625 233.308594 L 649.082031 233.308594 C 649.082031 164.300781 593.136719 108.355469 524.132812 108.355469 "/></g><g style="fill:#f18314;fill-opacity:1;"><g transform="translate(491.93092, 413.95053)"><path style="stroke:none" d="M 8.078125 0.265625 C 6.910156 0.265625 5.863281 0.109375 4.9375 -0.203125 C 4.019531 -0.523438 3.253906 -0.941406 2.640625 -1.453125 C 2.023438 -1.960938 1.566406 -2.523438 1.265625 -3.140625 L 2.453125 -4.59375 L 2.765625 -4.59375 C 3.910156 -2.65625 5.679688 -1.6875 8.078125 -1.6875 C 9.460938 -1.6875 10.492188 -1.976562 11.171875 -2.5625 C 11.847656 -3.144531 12.1875 -3.953125 12.1875 -4.984375 C 12.1875 -5.597656 12.070312 -6.113281 11.84375 -6.53125 C 11.625 -6.945312 11.257812 -7.304688 10.75 -7.609375 C 10.238281 -7.910156 9.539062 -8.171875 8.65625 -8.390625 L 6.5 -8.921875 C 4.882812 -9.304688 3.695312 -9.921875 2.9375 -10.765625 C 2.175781 -11.617188 1.796875 -12.691406 1.796875 -13.984375 C 1.796875 -14.898438 2.03125 -15.71875 2.5 -16.4375 C 2.96875 -17.164062 3.65625 -17.726562 4.5625 -18.125 C 5.476562 -18.53125 6.566406 -18.734375 7.828125 -18.734375 C 9.222656 -18.734375 10.394531 -18.535156 11.34375 -18.140625 C 12.300781 -17.753906 13.066406 -17.171875 13.640625 -16.390625 L 12.578125 -14.953125 L 12.265625 -14.953125 C 11.734375 -15.609375 11.101562 -16.085938 10.375 -16.390625 C 9.65625 -16.691406 8.804688 -16.84375 7.828125 -16.84375 C 6.546875 -16.84375 5.578125 -16.59375 4.921875 -16.09375 C 4.273438 -15.59375 3.953125 -14.90625 3.953125 -14.03125 C 3.953125 -13.195312 4.191406 -12.535156 4.671875 -12.046875 C 5.148438 -11.554688 5.957031 -11.175781 7.09375 -10.90625 L 9.3125 -10.375 C 11.101562 -9.945312 12.398438 -9.296875 13.203125 -8.421875 C 14.015625 -7.554688 14.421875 -6.445312 14.421875 -5.09375 C 14.421875 -4.050781 14.1875 -3.125 13.71875 -2.3125 C 13.25 -1.507812 12.535156 -0.878906 11.578125 -0.421875 C 10.628906 0.0351562 9.460938 0.265625 8.078125 0.265625 Z M 8.078125 0.265625 "/></g></g><g style="fill:#f18314;fill-opacity:1;"><g transform="translate(507.759451, 413.95053)"><path style="stroke:none" d="M 8 0.265625 C 6.6875 0.265625 5.539062 -0.0078125 4.5625 -0.5625 C 3.59375 -1.125 2.84375 -1.945312 2.3125 -3.03125 C 1.789062 -4.113281 1.53125 -5.425781 1.53125 -6.96875 C 1.53125 -8.507812 1.789062 -9.820312 2.3125 -10.90625 C 2.84375 -11.988281 3.59375 -12.804688 4.5625 -13.359375 C 5.539062 -13.921875 6.6875 -14.203125 8 -14.203125 C 9.3125 -14.203125 10.453125 -13.921875 11.421875 -13.359375 C 12.398438 -12.804688 13.148438 -11.988281 13.671875 -10.90625 C 14.203125 -9.820312 14.46875 -8.507812 14.46875 -6.96875 C 14.46875 -5.425781 14.203125 -4.113281 13.671875 -3.03125 C 13.148438 -1.945312 12.398438 -1.125 11.421875 -0.5625 C 10.453125 -0.0078125 9.3125 0.265625 8 0.265625 Z M 8 -1.578125 C 9.382812 -1.578125 10.445312 -2.015625 11.1875 -2.890625 C 11.925781 -3.765625 12.296875 -5.125 12.296875 -6.96875 C 12.296875 -8.8125 11.925781 -10.171875 11.1875 -11.046875 C 10.445312 -11.921875 9.382812 -12.359375 8 -12.359375 C 6.601562 -12.359375 5.535156 -11.914062 4.796875 -11.03125 C 4.054688 -10.15625 3.6875 -8.800781 3.6875 -6.96875 C 3.6875 -5.125 4.054688 -3.765625 4.796875 -2.890625 C 5.535156 -2.015625 6.601562 -1.578125 8 -1.578125 Z M 8 -1.578125 "/></g></g><g style="fill:#f18314;fill-opacity:1;"><g transform="translate(523.752204, 413.95053)"><path style="stroke:none" d="M 5.546875 0.265625 C 4.554688 0.265625 3.78125 -0.015625 3.21875 -0.578125 C 2.65625 -1.140625 2.375 -1.972656 2.375 -3.078125 L 2.375 -19.53125 L 4.4375 -19.53125 L 4.4375 -3.21875 C 4.4375 -2.632812 4.546875 -2.210938 4.765625 -1.953125 C 4.992188 -1.703125 5.34375 -1.578125 5.8125 -1.578125 C 6.09375 -1.578125 6.382812 -1.625 6.6875 -1.71875 L 6.859375 -1.671875 L 7.09375 -0.046875 C 6.945312 0.046875 6.734375 0.117188 6.453125 0.171875 C 6.171875 0.234375 5.867188 0.265625 5.546875 0.265625 Z M 5.546875 0.265625 "/></g></g><g style="fill:#f18314;fill-opacity:1;"><g transform="translate(531.331708, 413.95053)"><path style="stroke:none" d="M 8.8125 0 L 5.984375 0 L 0.6875 -13.9375 L 2.90625 -13.9375 L 7.296875 -2.34375 L 7.578125 -2.34375 L 11.921875 -13.9375 L 14.09375 -13.9375 Z M 8.8125 0 "/></g></g><g style="fill:#f18314;fill-opacity:1;"><g transform="translate(545.833808, 413.95053)"><path style="stroke:none" d="M 13.28125 -6.5 L 3.703125 -6.5 C 3.765625 -4.800781 4.171875 -3.554688 4.921875 -2.765625 C 5.671875 -1.972656 6.703125 -1.578125 8.015625 -1.578125 C 9.015625 -1.578125 9.816406 -1.753906 10.421875 -2.109375 C 11.023438 -2.460938 11.5 -3.019531 11.84375 -3.78125 L 12.109375 -3.78125 L 13.453125 -2.984375 C 13.046875 -1.972656 12.398438 -1.175781 11.515625 -0.59375 C 10.628906 -0.0195312 9.460938 0.265625 8.015625 0.265625 C 6.671875 0.265625 5.515625 0 4.546875 -0.53125 C 3.578125 -1.0625 2.832031 -1.863281 2.3125 -2.9375 C 1.789062 -4.019531 1.53125 -5.363281 1.53125 -6.96875 C 1.53125 -8.550781 1.804688 -9.882812 2.359375 -10.96875 C 2.910156 -12.050781 3.660156 -12.859375 4.609375 -13.390625 C 5.566406 -13.929688 6.660156 -14.203125 7.890625 -14.203125 C 9.679688 -14.203125 11.078125 -13.695312 12.078125 -12.6875 C 13.078125 -11.6875 13.582031 -10.195312 13.59375 -8.21875 C 13.59375 -7.4375 13.578125 -6.910156 13.546875 -6.640625 Z M 11.5625 -8.21875 C 11.53125 -9.695312 11.203125 -10.769531 10.578125 -11.4375 C 9.953125 -12.113281 9.054688 -12.453125 7.890625 -12.453125 C 6.671875 -12.453125 5.710938 -12.113281 5.015625 -11.4375 C 4.328125 -10.757812 3.90625 -9.6875 3.75 -8.21875 Z M 11.5625 -8.21875 "/></g></g><path style="fill:none;stroke-width:6;stroke-linecap:butt;stroke-linejoin:miter;stroke:#000000;stroke-opacity:1;stroke-miterlimit:4;" d="M 0.00221201 2.999989 L 245.75752 2.999989 " transform="matrix(0.749634,0,0,0.749634,419.885061,285.751106)"/></g></svg>